<svg width="127" height="30" viewBox="0 0 127 30" fill="none" xmlns="http://www.w3.org/2000/svg">
<g clip-path="url(#clip0_1_40)">
<g clip-path="url(#clip1_1_40)">
<path d="M7.448 12.036C7.384 12.148 7.31467 12.2307 7.24 12.284C7.17067 12.332 7.08267 12.356 6.976 12.356C6.864 12.356 6.74133 12.316 6.608 12.236C6.48 12.1507 6.32533 12.0573 6.144 11.956C5.96267 11.8547 5.74933 11.764 5.504 11.684C5.264 11.5987 4.97867 11.556 4.648 11.556C4.34933 11.556 4.088 11.5933 3.864 11.668C3.64 11.7373 3.45067 11.836 3.296 11.964C3.14667 12.092 3.03467 12.2467 2.96 12.428C2.88533 12.604 2.848 12.7987 2.848 13.012C2.848 13.284 2.92267 13.5107 3.072 13.692C3.22667 13.8733 3.42933 14.028 3.68 14.156C3.93067 14.284 4.216 14.3987 4.536 14.5C4.856 14.6013 5.184 14.7107 5.52 14.828C5.856 14.94 6.184 15.0733 6.504 15.228C6.824 15.3773 7.10933 15.5693 7.36 15.804C7.61067 16.0333 7.81067 16.316 7.96 16.652C8.11467 16.988 8.192 17.396 8.192 17.876C8.192 18.3987 8.10133 18.8893 7.92 19.348C7.744 19.8013 7.48267 20.1987 7.136 20.54C6.79467 20.876 6.376 21.1427 5.88 21.34C5.384 21.532 4.816 21.628 4.176 21.628C3.808 21.628 3.44533 21.5907 3.088 21.516C2.73067 21.4467 2.38667 21.3453 2.056 21.212C1.73067 21.0787 1.424 20.9187 1.136 20.732C0.848 20.5453 0.592 20.3373 0.368 20.108L1 19.076C1.05333 19.0013 1.12267 18.94 1.208 18.892C1.29333 18.8387 1.384 18.812 1.48 18.812C1.61333 18.812 1.75733 18.868 1.912 18.98C2.06667 19.0867 2.25067 19.2067 2.464 19.34C2.67733 19.4733 2.92533 19.596 3.208 19.708C3.496 19.8147 3.84 19.868 4.24 19.868C4.85333 19.868 5.328 19.724 5.664 19.436C6 19.1427 6.168 18.724 6.168 18.18C6.168 17.876 6.09067 17.628 5.936 17.436C5.78667 17.244 5.58667 17.084 5.336 16.956C5.08533 16.8227 4.8 16.7107 4.48 16.62C4.16 16.5293 3.83467 16.4307 3.504 16.324C3.17333 16.2173 2.848 16.0893 2.528 15.94C2.208 15.7907 1.92267 15.596 1.672 15.356C1.42133 15.116 1.21867 14.8173 1.064 14.46C0.914667 14.0973 0.84 13.652 0.84 13.124C0.84 12.7027 0.922667 12.292 1.088 11.892C1.25867 11.492 1.504 11.1373 1.824 10.828C2.144 10.5187 2.53867 10.2707 3.008 10.084C3.47733 9.89733 4.016 9.804 4.624 9.804C5.30667 9.804 5.936 9.91067 6.512 10.124C7.088 10.3373 7.57867 10.636 7.984 11.02L7.448 12.036ZM15.9469 17.132L14.5389 13.284C14.4695 13.1133 14.3975 12.9107 14.3229 12.676C14.2482 12.4413 14.1735 12.188 14.0989 11.916C14.0295 12.188 13.9575 12.444 13.8829 12.684C13.8082 12.9187 13.7362 13.124 13.6669 13.3L12.2669 17.132H15.9469ZM19.7469 21.5H18.0829C17.8962 21.5 17.7442 21.4547 17.6269 21.364C17.5095 21.268 17.4215 21.1507 17.3629 21.012L16.4989 18.652H11.7069L10.8429 21.012C10.8002 21.1347 10.7175 21.2467 10.5949 21.348C10.4722 21.4493 10.3202 21.5 10.1389 21.5H8.45887L13.0109 9.932H15.2029L19.7469 21.5ZM27.0563 17.132L25.6483 13.284C25.5789 13.1133 25.5069 12.9107 25.4323 12.676C25.3576 12.4413 25.2829 12.188 25.2083 11.916C25.1389 12.188 25.0669 12.444 24.9923 12.684C24.9176 12.9187 24.8456 13.124 24.7763 13.3L23.3763 17.132H27.0563ZM30.8563 21.5H29.1923C29.0056 21.5 28.8536 21.4547 28.7363 21.364C28.6189 21.268 28.5309 21.1507 28.4722 21.012L27.6083 18.652H22.8163L21.9523 21.012C21.9096 21.1347 21.8269 21.2467 21.7043 21.348C21.5816 21.4493 21.4296 21.5 21.2483 21.5H19.5682L24.1203 9.932H26.3123L30.8563 21.5ZM38.2136 12.036C38.1496 12.148 38.0803 12.2307 38.0056 12.284C37.9363 12.332 37.8483 12.356 37.7416 12.356C37.6296 12.356 37.507 12.316 37.3736 12.236C37.2456 12.1507 37.091 12.0573 36.9096 11.956C36.7283 11.8547 36.515 11.764 36.2696 11.684C36.0296 11.5987 35.7443 11.556 35.4136 11.556C35.115 11.556 34.8536 11.5933 34.6296 11.668C34.4056 11.7373 34.2163 11.836 34.0616 11.964C33.9123 12.092 33.8003 12.2467 33.7256 12.428C33.651 12.604 33.6136 12.7987 33.6136 13.012C33.6136 13.284 33.6883 13.5107 33.8376 13.692C33.9923 13.8733 34.195 14.028 34.4456 14.156C34.6963 14.284 34.9816 14.3987 35.3016 14.5C35.6216 14.6013 35.9496 14.7107 36.2856 14.828C36.6216 14.94 36.9496 15.0733 37.2696 15.228C37.5896 15.3773 37.875 15.5693 38.1256 15.804C38.3763 16.0333 38.5763 16.316 38.7256 16.652C38.8803 16.988 38.9576 17.396 38.9576 17.876C38.9576 18.3987 38.867 18.8893 38.6856 19.348C38.5096 19.8013 38.2483 20.1987 37.9016 20.54C37.5603 20.876 37.1416 21.1427 36.6456 21.34C36.1496 21.532 35.5816 21.628 34.9416 21.628C34.5736 21.628 34.211 21.5907 33.8536 21.516C33.4963 21.4467 33.1523 21.3453 32.8216 21.212C32.4963 21.0787 32.1896 20.9187 31.9016 20.732C31.6136 20.5453 31.3576 20.3373 31.1336 20.108L31.7656 19.076C31.819 19.0013 31.8883 18.94 31.9736 18.892C32.059 18.8387 32.1496 18.812 32.2456 18.812C32.379 18.812 32.523 18.868 32.6776 18.98C32.8323 19.0867 33.0163 19.2067 33.2296 19.34C33.443 19.4733 33.691 19.596 33.9736 19.708C34.2616 19.8147 34.6056 19.868 35.0056 19.868C35.619 19.868 36.0936 19.724 36.4296 19.436C36.7656 19.1427 36.9336 18.724 36.9336 18.18C36.9336 17.876 36.8563 17.628 36.7016 17.436C36.5523 17.244 36.3523 17.084 36.1016 16.956C35.851 16.8227 35.5656 16.7107 35.2456 16.62C34.9256 16.5293 34.6003 16.4307 34.2696 16.324C33.939 16.2173 33.6136 16.0893 33.2936 15.94C32.9736 15.7907 32.6883 15.596 32.4376 15.356C32.187 15.116 31.9843 14.8173 31.8296 14.46C31.6803 14.0973 31.6056 13.652 31.6056 13.124C31.6056 12.7027 31.6883 12.292 31.8536 11.892C32.0243 11.492 32.2696 11.1373 32.5896 10.828C32.9096 10.5187 33.3043 10.2707 33.7736 10.084C34.243 9.89733 34.7816 9.804 35.3896 9.804C36.0723 9.804 36.7016 9.91067 37.2776 10.124C37.8536 10.3373 38.3443 10.636 38.7496 11.02L38.2136 12.036ZM40.4589 15.844H44.6029V17.492H40.4589V15.844Z" fill="white"/>
<path d="M54.88 15.716C54.88 16.724 54.7707 17.6013 54.552 18.348C54.3387 19.0893 54.04 19.7027 53.656 20.188C53.2773 20.6733 52.8267 21.036 52.304 21.276C51.7867 21.5107 51.2267 21.628 50.624 21.628C50.0213 21.628 49.4613 21.5107 48.944 21.276C48.432 21.036 47.9867 20.6733 47.608 20.188C47.2293 19.7027 46.9333 19.0893 46.72 18.348C46.5067 17.6013 46.4 16.724 46.4 15.716C46.4 14.7027 46.5067 13.8253 46.72 13.084C46.9333 12.3427 47.2293 11.7293 47.608 11.244C47.9867 10.7587 48.432 10.3987 48.944 10.164C49.4613 9.924 50.0213 9.804 50.624 9.804C51.2267 9.804 51.7867 9.924 52.304 10.164C52.8267 10.3987 53.2773 10.7587 53.656 11.244C54.04 11.7293 54.3387 12.3427 54.552 13.084C54.7707 13.8253 54.88 14.7027 54.88 15.716ZM52.84 15.716C52.84 14.8787 52.7787 14.1853 52.656 13.636C52.5333 13.0867 52.368 12.6493 52.16 12.324C51.9573 11.9987 51.7227 11.772 51.456 11.644C51.1893 11.5107 50.912 11.444 50.624 11.444C50.3413 11.444 50.0667 11.5107 49.8 11.644C49.5387 11.772 49.3067 11.9987 49.104 12.324C48.9013 12.6493 48.7387 13.0867 48.616 13.636C48.4987 14.1853 48.44 14.8787 48.44 15.716C48.44 16.5533 48.4987 17.2467 48.616 17.796C48.7387 18.3453 48.9013 18.7827 49.104 19.108C49.3067 19.4333 49.5387 19.6627 49.8 19.796C50.0667 19.924 50.3413 19.988 50.624 19.988C50.912 19.988 51.1893 19.924 51.456 19.796C51.7227 19.6627 51.9573 19.4333 52.16 19.108C52.368 18.7827 52.5333 18.3453 52.656 17.796C52.7787 17.2467 52.84 16.5533 52.84 15.716ZM64.1613 15.716C64.1613 16.724 64.0519 17.6013 63.8333 18.348C63.6199 19.0893 63.3213 19.7027 62.9373 20.188C62.5586 20.6733 62.1079 21.036 61.5853 21.276C61.0679 21.5107 60.5079 21.628 59.9053 21.628C59.3026 21.628 58.7426 21.5107 58.2253 21.276C57.7133 21.036 57.2679 20.6733 56.8893 20.188C56.5106 19.7027 56.2146 19.0893 56.0013 18.348C55.7879 17.6013 55.6813 16.724 55.6813 15.716C55.6813 14.7027 55.7879 13.8253 56.0013 13.084C56.2146 12.3427 56.5106 11.7293 56.8893 11.244C57.2679 10.7587 57.7133 10.3987 58.2253 10.164C58.7426 9.924 59.3026 9.804 59.9053 9.804C60.5079 9.804 61.0679 9.924 61.5853 10.164C62.1079 10.3987 62.5586 10.7587 62.9373 11.244C63.3213 11.7293 63.6199 12.3427 63.8333 13.084C64.0519 13.8253 64.1613 14.7027 64.1613 15.716ZM62.1213 15.716C62.1213 14.8787 62.0599 14.1853 61.9373 13.636C61.8146 13.0867 61.6493 12.6493 61.4413 12.324C61.2386 11.9987 61.0039 11.772 60.7373 11.644C60.4706 11.5107 60.1933 11.444 59.9053 11.444C59.6226 11.444 59.3479 11.5107 59.0813 11.644C58.8199 11.772 58.5879 11.9987 58.3853 12.324C58.1826 12.6493 58.0199 13.0867 57.8973 13.636C57.7799 14.1853 57.7213 14.8787 57.7213 15.716C57.7213 16.5533 57.7799 17.2467 57.8973 17.796C58.0199 18.3453 58.1826 18.7827 58.3853 19.108C58.5879 19.4333 58.8199 19.6627 59.0813 19.796C59.3479 19.924 59.6226 19.988 59.9053 19.988C60.1933 19.988 60.4706 19.924 60.7373 19.796C61.0039 19.6627 61.2386 19.4333 61.4413 19.108C61.6493 18.7827 61.8146 18.3453 61.9373 17.796C62.0599 17.2467 62.1213 16.5533 62.1213 15.716ZM73.4425 15.716C73.4425 16.724 73.3332 17.6013 73.1145 18.348C72.9012 19.0893 72.6025 19.7027 72.2185 20.188C71.8398 20.6733 71.3892 21.036 70.8665 21.276C70.3492 21.5107 69.7892 21.628 69.1865 21.628C68.5838 21.628 68.0238 21.5107 67.5065 21.276C66.9945 21.036 66.5492 20.6733 66.1705 20.188C65.7918 19.7027 65.4958 19.0893 65.2825 18.348C65.0692 17.6013 64.9625 16.724 64.9625 15.716C64.9625 14.7027 65.0692 13.8253 65.2825 13.084C65.4958 12.3427 65.7918 11.7293 66.1705 11.244C66.5492 10.7587 66.9945 10.3987 67.5065 10.164C68.0238 9.924 68.5838 9.804 69.1865 9.804C69.7892 9.804 70.3492 9.924 70.8665 10.164C71.3892 10.3987 71.8398 10.7587 72.2185 11.244C72.6025 11.7293 72.9012 12.3427 73.1145 13.084C73.3332 13.8253 73.4425 14.7027 73.4425 15.716ZM71.4025 15.716C71.4025 14.8787 71.3412 14.1853 71.2185 13.636C71.0958 13.0867 70.9305 12.6493 70.7225 12.324C70.5198 11.9987 70.2852 11.772 70.0185 11.644C69.7518 11.5107 69.4745 11.444 69.1865 11.444C68.9038 11.444 68.6292 11.5107 68.3625 11.644C68.1012 11.772 67.8692 11.9987 67.6665 12.324C67.4638 12.6493 67.3012 13.0867 67.1785 13.636C67.0612 14.1853 67.0025 14.8787 67.0025 15.716C67.0025 16.5533 67.0612 17.2467 67.1785 17.796C67.3012 18.3453 67.4638 18.7827 67.6665 19.108C67.8692 19.4333 68.1012 19.6627 68.3625 19.796C68.6292 19.924 68.9038 19.988 69.1865 19.988C69.4745 19.988 69.7518 19.924 70.0185 19.796C70.2852 19.6627 70.5198 19.4333 70.7225 19.108C70.9305 18.7827 71.0958 18.3453 71.2185 17.796C71.3412 17.2467 71.4025 16.5533 71.4025 15.716ZM82.7238 15.716C82.7238 16.724 82.6144 17.6013 82.3958 18.348C82.1824 19.0893 81.8838 19.7027 81.4998 20.188C81.1211 20.6733 80.6704 21.036 80.1478 21.276C79.6304 21.5107 79.0704 21.628 78.4678 21.628C77.8651 21.628 77.3051 21.5107 76.7878 21.276C76.2758 21.036 75.8304 20.6733 75.4518 20.188C75.0731 19.7027 74.7771 19.0893 74.5638 18.348C74.3504 17.6013 74.2438 16.724 74.2438 15.716C74.2438 14.7027 74.3504 13.8253 74.5638 13.084C74.7771 12.3427 75.0731 11.7293 75.4518 11.244C75.8304 10.7587 76.2758 10.3987 76.7878 10.164C77.3051 9.924 77.8651 9.804 78.4678 9.804C79.0704 9.804 79.6304 9.924 80.1478 10.164C80.6704 10.3987 81.1211 10.7587 81.4998 11.244C81.8838 11.7293 82.1824 12.3427 82.3958 13.084C82.6144 13.8253 82.7238 14.7027 82.7238 15.716ZM80.6838 15.716C80.6838 14.8787 80.6224 14.1853 80.4998 13.636C80.3771 13.0867 80.2118 12.6493 80.0038 12.324C79.8011 11.9987 79.5664 11.772 79.2998 11.644C79.0331 11.5107 78.7558 11.444 78.4678 11.444C78.1851 11.444 77.9104 11.5107 77.6438 11.644C77.3824 11.772 77.1504 11.9987 76.9478 12.324C76.7451 12.6493 76.5824 13.0867 76.4598 13.636C76.3424 14.1853 76.2838 14.8787 76.2838 15.716C76.2838 16.5533 76.3424 17.2467 76.4598 17.796C76.5824 18.3453 76.7451 18.7827 76.9478 19.108C77.1504 19.4333 77.3824 19.6627 77.6438 19.796C77.9104 19.924 78.1851 19.988 78.4678 19.988C78.7558 19.988 79.0331 19.924 79.2998 19.796C79.5664 19.6627 79.8011 19.4333 80.0038 19.108C80.2118 18.7827 80.3771 18.3453 80.4998 17.796C80.6224 17.2467 80.6838 16.5533 80.6838 15.716Z" fill="white"/>
</g>
<path d="M112 2.59375C109.613 5.01075 109.598 8.93003 112 11.332L115.668 15L113.414 17.2539C115.151 18.9919 115.932 21.3506 115.766 23.6406L120.037 19.3691L123.713 15.6934C124.097 15.3104 124.096 14.6896 123.713 14.3066L116.369 6.96289L112 2.59375ZM108.234 6.35938L103.963 10.6309L103.84 10.7559L100.289 14.3047C99.9061 14.6887 99.9061 15.3094 100.289 15.6934L110.967 26.3711L112 27.4062C114.387 24.9893 114.402 21.07 112 18.668L108.332 15L110.586 12.7461C108.849 11.0081 108.068 8.64937 108.234 6.35938Z" fill="white"/>
</g>
<defs>
<clipPath id="clip0_1_40">
<rect width="127" height="30" fill="white"/>
</clipPath>
<clipPath id="clip1_1_40">
<rect width="84" height="19" fill="white" transform="translate(0 5.5)"/>
</clipPath>
</defs>
</svg>
